<svg xmlns="http://www.w3.org/2000/svg" xmlns:xlink="http://www.w3.org/1999/xlink" viewBox="0 0 16 16"><defs><style>.cls-1{fill:none;}.cls-2{clip-path:url(#clip-path);}.cls-3{fill:#fff;}</style><clipPath id="clip-path"><rect class="cls-1" x="40.59" width="630.03" height="499.18"/></clipPath></defs><g id="Fondos"><g class="cls-2"><image width="1920" height="1080" transform="translate(-97.43 -4.82) scale(0.47)" xlink:href="../Floor.png"/></g></g><g id="Texto_e_iconos" data-name="Texto e iconos"><path class="cls-3" d="M4.09,6.15l3.58,1a.25.25,0,0,0,.25-.06l2.64-2.62A.26.26,0,0,0,10.44,4L6.86,3a.25.25,0,0,0-.25.06L4,5.71A.26.26,0,0,0,4.09,6.15Z"/><path class="cls-3" d="M11.68,5.54,9.05,8.15A.24.24,0,0,0,9,8.4L9.92,12a.26.26,0,0,0,.44.12L13,9.5a.3.3,0,0,0,.07-.26l-1-3.58A.26.26,0,0,0,11.68,5.54Z"/><path class="cls-3" d="M7.27,8.62l-3.58-1A.26.26,0,0,0,3.36,8l.95,3.59a.24.24,0,0,0,.19.18l3.58,1a.26.26,0,0,0,.32-.32l-1-3.59A.25.25,0,0,0,7.27,8.62Z"/><path class="cls-3" d="M7.38,14.35a7,7,0,0,1-2.56-.89h0a6.79,6.79,0,0,1-2-1.79.84.84,0,1,0-1.34,1A8.65,8.65,0,0,0,4,14.92H4A8.53,8.53,0,0,0,7.16,16h.11a.83.83,0,0,0,.83-.73A.82.82,0,0,0,7.38,14.35Z"/><path class="cls-3" d="M12,1.1A8.65,8.65,0,0,0,8.86,0a.83.83,0,0,0-.95.72.85.85,0,0,0,.72,1,6.67,6.67,0,0,1,2.56.88,6.83,6.83,0,0,1,2,1.79.82.82,0,0,0,.67.33.89.89,0,0,0,.51-.17.84.84,0,0,0,.16-1.18A8.82,8.82,0,0,0,12,1.1Z"/></g></svg>